<?xml version="1.0" encoding="UTF-8" standalone="no"?>
<svg
   xmlns:v="http://schemas.microsoft.com/visio/2003/SVGExtensions/"
   xmlns:dc="http://purl.org/dc/elements/1.1/"
   xmlns:cc="http://creativecommons.org/ns#"
   xmlns:rdf="http://www.w3.org/1999/02/22-rdf-syntax-ns#"
   xmlns:svg="http://www.w3.org/2000/svg"
   xmlns="http://www.w3.org/2000/svg"
   xmlns:sodipodi="http://sodipodi.sourceforge.net/DTD/sodipodi-0.dtd"
   xmlns:inkscape="http://www.inkscape.org/namespaces/inkscape"
   width="210mm"
   height="297mm"
   viewBox="0 0 210 297"
   version="1.1"
   id="svg8"
   inkscape:version="1.0.1 (3bc2e813f5, 2020-09-07)"
   sodipodi:docname="描画.svg">
  <defs
     id="defs2" />
  <sodipodi:namedview
     id="base"
     pagecolor="#ffffff"
     bordercolor="#666666"
     borderopacity="1.0"
     inkscape:pageopacity="0.0"
     inkscape:pageshadow="2"
     inkscape:zoom="0.98994949"
     inkscape:cx="400.49207"
     inkscape:cy="397.31741"
     inkscape:document-units="mm"
     inkscape:current-layer="layer1"
     inkscape:document-rotation="0"
     showgrid="false"
     inkscape:window-width="1639"
     inkscape:window-height="1198"
     inkscape:window-x="565"
     inkscape:window-y="32"
     inkscape:window-maximized="0" />
  <metadata
     id="metadata5">
    <rdf:RDF>
      <cc:Work
         rdf:about="">
        <dc:format>image/svg+xml</dc:format>
        <dc:type
           rdf:resource="http://purl.org/dc/dcmitype/StillImage" />
        <dc:title></dc:title>
      </cc:Work>
    </rdf:RDF>
  </metadata>
  <g
     inkscape:label="レイヤー 1"
     inkscape:groupmode="layer"
     id="layer1">
    <g
       style="font-size:12px;overflow:visible;color-interpolation-filters:sRGB;fill:none;fill-rule:evenodd;stroke-linecap:square;stroke-miterlimit:3"
       id="g924"
       transform="matrix(0.30098289,-0.1840152,0.1840152,0.30098289,28.92571,104.18543)"
       inkscape:export-xdpi="96"
       inkscape:export-ydpi="96">
      <g
         v:mID="0"
         v:index="1"
         v:groupContext="foregroundPage"
         id="g883">
		<title
   id="title835">ページ - 1</title>

		<v:pageProperties
   v:drawingScale="0.0393701"
   v:pageScale="0.0393701"
   v:drawingUnits="24"
   v:shadowOffsetX="8.50394"
   v:shadowOffsetY="-8.50394" />

		<g
   id="group17-1"
   transform="translate(9.25,-9.25)"
   v:mID="17"
   v:groupContext="group">
			<title
   id="title837">シート.17</title>

			<g
   id="shape18-2"
   v:mID="18"
   v:groupContext="shape"
   transform="rotate(90,50.95295,112.82305)">
				<title
   id="title839">シート.18</title>

				<path
   d="M 0,142.52 0.34,103.41 H 9.46 V 87.47 h 22.8 v 15.94 h 9.41 l -0.85,39.11 z"
   class="st1"
   id="path841" />

			</g>

			<g
   id="shape19-4"
   v:mID="19"
   v:groupContext="shape"
   transform="rotate(90,81.8503,144.0587)">
				<title
   id="title844">シート.19</title>

				<path
   d="m 0,142.52 0.51,-37.08 h 40.82 l -0.29,37.08 H 31.92 L 31.69,126.7 H 9.02 l 0.1,15.82 z"
   class="st1"
   id="path846" />

			</g>

			<g
   id="shape20-6"
   v:mID="20"
   v:groupContext="shape"
   transform="translate(21.2598,-60.2362)">
				<title
   id="title849">シート.20</title>

				<path
   d="M 99.21,142.52 A 18.7087,16.7244 -180 0 0 117.92,125.79 117.921,47.0551 -180 0 0 0,78.74"
   class="st2"
   id="path851" />

			</g>

			<g
   id="shape21-9"
   v:mID="21"
   v:groupContext="shape"
   transform="rotate(180,58.9605,110.626)">
				<title
   id="title854">シート.21</title>

				<path
   d="M 99.21,142.52 A 18.7087,16.7244 -180 0 0 117.92,125.79 117.921,47.0551 -180 0 0 0,78.74"
   class="st2"
   id="path856" />

			</g>

		</g>

		<g
   id="group22-12"
   transform="translate(9.25,-9.25)"
   v:mID="22"
   v:groupContext="group">
			<title
   id="title860">シート.22</title>

			<g
   id="shape23-13"
   v:mID="23"
   v:groupContext="shape"
   transform="rotate(90,50.95295,112.82305)">
				<title
   id="title862">シート.23</title>

				<path
   d="M 0,142.52 0.34,103.41 H 9.46 V 87.47 h 22.8 v 15.94 h 9.41 l -0.85,39.11 z"
   class="st3"
   id="path864" />

			</g>

			<g
   id="shape24-15"
   v:mID="24"
   v:groupContext="shape"
   transform="rotate(90,81.8503,144.0587)">
				<title
   id="title867">シート.24</title>

				<path
   d="m 0,142.52 0.51,-37.08 h 40.82 l -0.29,37.08 H 31.92 L 31.69,126.7 H 9.02 l 0.1,15.82 z"
   class="st3"
   id="path869" />

			</g>

			<g
   id="shape25-17"
   v:mID="25"
   v:groupContext="shape"
   transform="translate(21.2598,-60.2362)">
				<title
   id="title872">シート.25</title>

				<path
   d="M 99.21,142.52 A 18.7087,16.7244 -180 0 0 117.92,125.79 117.921,47.0551 -180 0 0 0,78.74"
   class="st4"
   id="path874" />

			</g>

			<g
   id="shape26-20"
   v:mID="26"
   v:groupContext="shape"
   transform="rotate(180,58.9605,110.626)">
				<title
   id="title877">シート.26</title>

				<path
   d="M 99.21,142.52 A 18.7087,16.7244 -180 0 0 117.92,125.79 117.921,47.0551 -180 0 0 0,78.74"
   class="st4"
   id="path879" />

			</g>

		</g>

	</g>
    </g>
  </g>
  <style
     type="text/css"
     id="style833">
	<![CDATA[
		.st1 {fill:none;stroke:#ffffff;stroke-linecap:round;stroke-linejoin:round;stroke-width:18.5}
		.st2 {stroke:#ffffff;stroke-linecap:round;stroke-linejoin:round;stroke-width:18.5}
		.st3 {fill:#7f7f7f;stroke:#7f7f7f;stroke-linecap:round;stroke-linejoin:round;stroke-width:4.5}
		.st4 {stroke:#7f7f7f;stroke-linecap:round;stroke-linejoin:round;stroke-width:4.5}
		.st5 {fill:none;fill-rule:evenodd;font-size:12px;overflow:visible;stroke-linecap:square;stroke-miterlimit:3}
	]]>
	</style>
</svg>
